<svg xmlns="http://www.w3.org/2000/svg" width="1280" height="720" viewBox="0 0 1280 720" role="img" aria-labelledby="u7d-title-40 u7d-desc-40" data-unit7d-composition="u7d-40-search-snippet-improvement-workflow" data-unit7d-family="SERP tuning matrix"><title id="u7d-title-40">A Search Snippet Improvement Workflow editorial cover</title><desc id="u7d-desc-40">A Search Snippet Improvement Workflow visualized as relevance and validation shape a search snippet.</desc><defs><linearGradient id="u7d-accent-40" x1="0" y1="0" x2="1" y2="1"><stop stop-color="#68d45b"/><stop offset=".55" stop-color="#20bde8"/><stop offset="1" stop-color="#ffd75b"/></linearGradient></defs><rect width="1280" height="720" fill="#070a13"/><path d="M0 640L330 80H1280" fill="none" stroke="#68d45b" stroke-width="3" opacity=".12"/><path d="M0 500L260 50" stroke="#20bde8" stroke-width="90" opacity=".025"/><g data-visual-type="matrix"><rect x="140" y="130" width="760" height="430" rx="34" fill="#f7f9fc" stroke="#68d45b" stroke-width="5" opacity="1"/><line x1="205" y1="250" x2="770" y2="250" stroke="#40516b" stroke-width="14" opacity="1"/><line x1="205" y1="295" x2="690" y2="295" stroke="#8b99ad" stroke-width="8" opacity="1"/><line x1="205" y1="330" x2="735" y2="330" stroke="#8b99ad" stroke-width="8" opacity="1"/><rect x="950" y="170" width="210" height="340" rx="30" fill="#101729" stroke="#20bde8" stroke-width="5" opacity="1"/><line x1="990" y1="245" x2="1120" y2="245" stroke="#68d45b" stroke-width="8" opacity="1"/><circle cx="1040" cy="245" r="16" fill="#68d45b" stroke="#68d45b" stroke-width="1" opacity="1"/><line x1="990" y1="335" x2="1120" y2="335" stroke="#20bde8" stroke-width="8" opacity="1"/><circle cx="1060" cy="335" r="16" fill="#20bde8" stroke="#20bde8" stroke-width="1" opacity="1"/><line x1="990" y1="425" x2="1120" y2="425" stroke="#ffd75b" stroke-width="8" opacity="1"/><circle cx="1080" cy="425" r="16" fill="#ffd75b" stroke="#ffd75b" stroke-width="1" opacity="1"/></g><path d="M70 665H1210" stroke="url(#u7d-accent-40)" stroke-width="3" opacity=".5"/></svg>