<svg xmlns="http://www.w3.org/2000/svg" width="1280" height="720" viewBox="0 0 1280 720" role="img" aria-labelledby="u7d-title-15 u7d-desc-15" data-unit7d-composition="u7d-15-subscription-offer-readiness-checklist-for-ecommerce" data-unit7d-family="subscription offer stack"><title id="u7d-title-15">A Subscription Offer Readiness Checklist for Ecommerce editorial cover</title><desc id="u7d-desc-15">A Subscription Offer Readiness Checklist for Ecommerce visualized as value, terms, delivery, and retention form one offer.</desc><defs><linearGradient id="u7d-accent-15" x1="0" y1="0" x2="1" y2="1"><stop stop-color="#ff4f9a"/><stop offset=".55" stop-color="#ff9f43"/><stop offset="1" stop-color="#8d6bff"/></linearGradient></defs><rect width="1280" height="720" fill="#070a13"/><path d="M0 0H560L780 720H0Z" fill="#ff4f9a" opacity=".055"/><path d="M1280 0H760L560 720H1280Z" fill="#ff9f43" opacity=".045"/><g data-visual-type="stack"><rect x="165" y="500" width="600" height="64" rx="18" fill="#101729" stroke="#ff4f9a" stroke-width="4" opacity="1"/><line x1="220" y1="532" x2="610" y2="532" stroke="#ff4f9a" stroke-width="3" opacity="0.5"/><rect x="320" y="422" width="285" height="64" rx="18" fill="#101729" stroke="#ff9f43" stroke-width="4" opacity="1"/><line x1="375" y1="454" x2="675" y2="454" stroke="#ff9f43" stroke-width="3" opacity="0.5"/><rect x="475" y="344" width="-30" height="64" rx="18" fill="#101729" stroke="#8d6bff" stroke-width="4" opacity="1"/><line x1="530" y1="376" x2="740" y2="376" stroke="#8d6bff" stroke-width="3" opacity="0.5"/><rect x="630" y="266" width="-345" height="64" rx="18" fill="#101729" stroke="#ff4f9a" stroke-width="4" opacity="1"/><line x1="685" y1="298" x2="805" y2="298" stroke="#ff4f9a" stroke-width="3" opacity="0.5"/><rect x="785" y="188" width="-660" height="64" rx="18" fill="#101729" stroke="#ff9f43" stroke-width="4" opacity="1"/><line x1="840" y1="220" x2="870" y2="220" stroke="#ff9f43" stroke-width="3" opacity="0.5"/><circle cx="1060" cy="190" r="75" fill="#101729" stroke="#8d6bff" stroke-width="7" opacity="1"/><path d="M1028 190l13 13 27-32" stroke="#8d6bff" stroke-width="7" fill="none" opacity="1" stroke-linecap="round" stroke-linejoin="round"/></g><path d="M70 665H1210" stroke="url(#u7d-accent-15)" stroke-width="3" opacity=".5"/></svg>