<svg xmlns="http://www.w3.org/2000/svg" width="1280" height="720" viewBox="0 0 1280 720" role="img" aria-labelledby="u7d-title-7 u7d-desc-7" data-unit7d-composition="u7d-07-paid-media-budget-pacing-controls-for-small-teams" data-unit7d-family="budget pacing cockpit"><title id="u7d-title-7">Paid Media Budget Pacing Controls for Small Teams editorial cover</title><desc id="u7d-desc-7">Paid Media Budget Pacing Controls for Small Teams visualized as spend velocity stays inside a planned corridor.</desc><defs><linearGradient id="u7d-accent-7" x1="0" y1="0" x2="1" y2="1"><stop stop-color="#3ca8ff"/><stop offset=".55" stop-color="#b8f34a"/><stop offset="1" stop-color="#ffb84d"/></linearGradient></defs><rect width="1280" height="720" fill="#070a13"/><path d="M0 580C260 420 390 700 680 520S1030 390 1280 500V720H0Z" fill="#3ca8ff" opacity=".07"/><circle cx="1050" cy="130" r="280" fill="#b8f34a" opacity=".045"/><g data-visual-type="dashboard"><circle cx="350" cy="335" r="170" fill="#101729" stroke="#3ca8ff" stroke-width="8" opacity="1"/><path d="M350 335L455 255" stroke="#ffb84d" stroke-width="10" fill="none" opacity="1" stroke-linecap="round" stroke-linejoin="round"/><circle cx="870" cy="335" r="170" fill="#101729" stroke="#b8f34a" stroke-width="8" opacity="1"/><path d="M870 335L810 205" stroke="#ffb84d" stroke-width="10" fill="none" opacity="1" stroke-linecap="round" stroke-linejoin="round"/><line x1="180" y1="540" x2="180" y2="590" stroke="#3ca8ff" stroke-width="5" opacity="1"/><line x1="265" y1="540" x2="265" y2="590" stroke="#3ca8ff" stroke-width="5" opacity="1"/><line x1="350" y1="540" x2="350" y2="590" stroke="#3ca8ff" stroke-width="5" opacity="1"/><line x1="435" y1="540" x2="435" y2="590" stroke="#3ca8ff" stroke-width="5" opacity="1"/><line x1="520" y1="540" x2="520" y2="590" stroke="#3ca8ff" stroke-width="5" opacity="1"/><path d="M160 575C410 510 650 620 1120 525" stroke="#b8f34a" stroke-width="7" fill="none" opacity="1" stroke-linecap="round" stroke-linejoin="round"/></g><path d="M70 665H1210" stroke="url(#u7d-accent-7)" stroke-width="3" opacity=".5"/></svg>