<svg xmlns="http://www.w3.org/2000/svg" width="1280" height="720" viewBox="0 0 1280 720" role="img" aria-labelledby="u7d-title-36 u7d-desc-36" data-unit7d-composition="u7d-36-internal-linking-audit-system-for-growing-websites" data-unit7d-family="internal-link network"><title id="u7d-title-36">An Internal Linking Audit System for Growing Websites editorial cover</title><desc id="u7d-desc-36">An Internal Linking Audit System for Growing Websites visualized as authority moves through deliberate internal links.</desc><defs><linearGradient id="u7d-accent-36" x1="0" y1="0" x2="1" y2="1"><stop stop-color="#68d45b"/><stop offset=".55" stop-color="#20bde8"/><stop offset="1" stop-color="#ffd75b"/></linearGradient></defs><rect width="1280" height="720" fill="#070a13"/><path d="M0 640L330 80H1280" fill="none" stroke="#68d45b" stroke-width="3" opacity=".12"/><path d="M0 500L260 50" stroke="#20bde8" stroke-width="90" opacity=".025"/><g data-visual-type="network"><circle cx="145" cy="120" r="35" fill="#101729" stroke="#68d45b" stroke-width="5" opacity="1"/><circle cx="610" cy="120" r="35" fill="#101729" stroke="#20bde8" stroke-width="5" opacity="1"/><circle cx="1025" cy="120" r="35" fill="#101729" stroke="#ffd75b" stroke-width="5" opacity="1"/><circle cx="170" cy="350" r="35" fill="#101729" stroke="#68d45b" stroke-width="5" opacity="1"/><line x1="170" y1="350" x2="45" y2="180" stroke="#68d45b" stroke-width="3" opacity="0.55"/><circle cx="585" cy="350" r="35" fill="#101729" stroke="#20bde8" stroke-width="5" opacity="1"/><line x1="585" y1="350" x2="390" y2="180" stroke="#20bde8" stroke-width="3" opacity="0.55"/><circle cx="1050" cy="350" r="35" fill="#101729" stroke="#ffd75b" stroke-width="5" opacity="1"/><line x1="1050" y1="350" x2="785" y2="180" stroke="#ffd75b" stroke-width="3" opacity="0.55"/><circle cx="145" cy="580" r="35" fill="#101729" stroke="#68d45b" stroke-width="5" opacity="1"/><line x1="145" y1="580" x2="20" y2="410" stroke="#68d45b" stroke-width="3" opacity="0.55"/><circle cx="610" cy="580" r="35" fill="#101729" stroke="#20bde8" stroke-width="5" opacity="1"/><line x1="610" y1="580" x2="415" y2="410" stroke="#20bde8" stroke-width="3" opacity="0.55"/><circle cx="1025" cy="580" r="35" fill="#101729" stroke="#ffd75b" stroke-width="5" opacity="1"/><line x1="1025" y1="580" x2="760" y2="410" stroke="#ffd75b" stroke-width="3" opacity="0.55"/><circle cx="640" cy="350" r="72" fill="#101729" stroke="#ffd75b" stroke-width="8" opacity="1"/><path d="M180 590C430 470 810 645 1110 515" stroke="#68d45b" stroke-width="5" fill="0.5" opacity="1" stroke-linecap="round" stroke-linejoin="round"/></g><path d="M70 665H1210" stroke="url(#u7d-accent-36)" stroke-width="3" opacity=".5"/></svg>