<svg xmlns="http://www.w3.org/2000/svg" width="1280" height="720" viewBox="0 0 1280 720" role="img" aria-labelledby="u7d-title-13 u7d-desc-13" data-unit7d-composition="u7d-13-ecommerce-promotion-governance-rules-owners-and-exceptions" data-unit7d-family="promotion governance calendar"><title id="u7d-title-13">Ecommerce Promotion Governance: Rules, Owners, and Exceptions editorial cover</title><desc id="u7d-desc-13">Ecommerce Promotion Governance: Rules, Owners, and Exceptions visualized as commercial events pass through approvals.</desc><defs><linearGradient id="u7d-accent-13" x1="0" y1="0" x2="1" y2="1"><stop stop-color="#ff4f9a"/><stop offset=".55" stop-color="#ff9f43"/><stop offset="1" stop-color="#8d6bff"/></linearGradient></defs><rect width="1280" height="720" fill="#070a13"/><path d="M0 0H560L780 720H0Z" fill="#ff4f9a" opacity=".055"/><path d="M1280 0H760L560 720H1280Z" fill="#ff9f43" opacity=".045"/><g data-visual-type="timeline"><rect x="120" y="90" width="1040" height="545" rx="36" fill="#101729" stroke="#ff4f9a" stroke-width="5" opacity="1"/><rect x="175" y="155" width="250" height="165" rx="24" fill="#0b1220" stroke="#ff4f9a" stroke-width="4" opacity="1"/><circle cx="255" cy="235" r="24" fill="#ff4f9a" stroke="#ff4f9a" stroke-width="1" opacity="1"/><rect x="485" y="155" width="250" height="165" rx="24" fill="#0b1220" stroke="#ff9f43" stroke-width="4" opacity="1"/><path d="M560 225l13 13 27-32" stroke="#ff9f43" stroke-width="7" fill="none" opacity="1" stroke-linecap="round" stroke-linejoin="round"/><rect x="795" y="155" width="250" height="165" rx="24" fill="#0b1220" stroke="#8d6bff" stroke-width="4" opacity="1"/><circle cx="875" cy="235" r="24" fill="#8d6bff" stroke="#8d6bff" stroke-width="1" opacity="1"/><rect x="175" y="380" width="250" height="165" rx="24" fill="#0b1220" stroke="#ff4f9a" stroke-width="4" opacity="1"/><path d="M250 450l13 13 27-32" stroke="#ff4f9a" stroke-width="7" fill="none" opacity="1" stroke-linecap="round" stroke-linejoin="round"/><rect x="485" y="380" width="250" height="165" rx="24" fill="#0b1220" stroke="#ff9f43" stroke-width="4" opacity="1"/><circle cx="565" cy="460" r="24" fill="#ff9f43" stroke="#ff9f43" stroke-width="1" opacity="1"/><rect x="795" y="380" width="250" height="165" rx="24" fill="#0b1220" stroke="#8d6bff" stroke-width="4" opacity="1"/><path d="M870 450l13 13 27-32" stroke="#8d6bff" stroke-width="7" fill="none" opacity="1" stroke-linecap="round" stroke-linejoin="round"/></g><path d="M70 665H1210" stroke="url(#u7d-accent-13)" stroke-width="3" opacity=".5"/></svg>