<svg xmlns="http://www.w3.org/2000/svg" width="1280" height="720" viewBox="0 0 1280 720" role="img" aria-labelledby="u7d-title-9 u7d-desc-9" data-unit7d-composition="u7d-09-practical-campaign-naming-taxonomy-for-paid-media" data-unit7d-family="campaign taxonomy stack"><title id="u7d-title-9">A Practical Campaign Naming Taxonomy for Paid Media editorial cover</title><desc id="u7d-desc-9">A Practical Campaign Naming Taxonomy for Paid Media visualized as naming blocks form a governed campaign identity.</desc><defs><linearGradient id="u7d-accent-9" x1="0" y1="0" x2="1" y2="1"><stop stop-color="#3ca8ff"/><stop offset=".55" stop-color="#b8f34a"/><stop offset="1" stop-color="#ffb84d"/></linearGradient></defs><rect width="1280" height="720" fill="#070a13"/><path d="M0 580C260 420 390 700 680 520S1030 390 1280 500V720H0Z" fill="#3ca8ff" opacity=".07"/><circle cx="1050" cy="130" r="280" fill="#b8f34a" opacity=".045"/><g data-visual-type="stack"><rect x="140" y="120" width="1000" height="480" rx="36" fill="#101729" stroke="#3ca8ff" stroke-width="5" opacity="1"/><rect x="210" y="190" width="140" height="70" rx="18" fill="#0b1220" stroke="#3ca8ff" stroke-width="4" opacity="1"/><line x1="350" y1="225" x2="380" y2="277" stroke="#b8f34a" stroke-width="5" opacity="0.9"/><polygon points="380,277 365,268 365,286" fill="#b8f34a" stroke="#b8f34a" stroke-width="1" opacity="1"/><rect x="380" y="242" width="140" height="70" rx="18" fill="#0b1220" stroke="#b8f34a" stroke-width="4" opacity="1"/><line x1="520" y1="277" x2="550" y2="329" stroke="#b8f34a" stroke-width="5" opacity="0.9"/><polygon points="550,329 535,320 535,338" fill="#b8f34a" stroke="#b8f34a" stroke-width="1" opacity="1"/><rect x="550" y="294" width="140" height="70" rx="18" fill="#0b1220" stroke="#ffb84d" stroke-width="4" opacity="1"/><line x1="690" y1="329" x2="720" y2="381" stroke="#b8f34a" stroke-width="5" opacity="0.9"/><polygon points="720,381 705,372 705,390" fill="#b8f34a" stroke="#b8f34a" stroke-width="1" opacity="1"/><rect x="720" y="346" width="140" height="70" rx="18" fill="#0b1220" stroke="#3ca8ff" stroke-width="4" opacity="1"/><line x1="860" y1="381" x2="890" y2="433" stroke="#b8f34a" stroke-width="5" opacity="0.9"/><polygon points="890,433 875,424 875,442" fill="#b8f34a" stroke="#b8f34a" stroke-width="1" opacity="1"/><rect x="890" y="398" width="140" height="70" rx="18" fill="#0b1220" stroke="#b8f34a" stroke-width="4" opacity="1"/></g><path d="M70 665H1210" stroke="url(#u7d-accent-9)" stroke-width="3" opacity=".5"/></svg>